# xmcd CD database file
#
# Track frame offsets:
#	150
#	20430
#	47668
#	64822
#	97370
#	127295
#	150836
#	174119
#	202226
#
# Disc length: 3118 seconds
#
# Revision: 0
# Processed by: cddbd v1.5.2PL0 Copyright (c) Steve Scherf et al.
# Submitted via: CDex 1.70beta2
#
DISCID=7b0c2c09
DTITLE=Sebastien Paindestre - Parcours
DYEAR=1900
DGENRE=Jazz
TTITLE0=Le Soupirail 
TTITLE1=Metamorphose 
TTITLE2=Un Pere Impair 
TTITLE3=Bess you is my women now
TTITLE4=Merlin 
TTITLE5=Je Kaje Lune
TTITLE6=La Java de La Luna II
TTITLE7=5 Boulevard Serrurier
TTITLE8=Tell me a bed time story
EXTD=
EXTT0=
EXTT1=
EXTT2=
EXTT3=
EXTT4=
EXTT5=
EXTT6=
EXTT7=
EXTT8=
PLAYORDER=
